<svg xmlns="http://www.w3.org/2000/svg" viewBox="0 0 64 64"><style>path{stroke:#16204A}@media (prefers-color-scheme:dark){path{stroke:#C9D3F2}}</style><path d="M33.87 33.24 L33.85 33.34 L33.82 33.45 L33.79 33.55 L33.75 33.65 L33.71 33.75 L33.66 33.85 L33.61 33.95 L33.55 34.05 L33.49 34.16 L33.42 34.26 L33.35 34.37 L33.28 34.48 L33.19 34.59 L33.10 34.69 L33.00 34.79 L32.90 34.89 L32.78 34.98 L32.66 35.07 L32.53 35.15 L32.39 35.21 L32.25 35.27 L32.10 35.32 L31.95 35.35 L31.80 35.38 L31.64 35.39 L31.48 35.39 L31.32 35.39 L31.15 35.38 L30.99 35.36 L30.82 35.34 L30.65 35.31 L30.47 35.28 L30.29 35.25 L30.11 35.21 L29.91 35.17 L29.72 35.12 L29.51 35.06 L29.31 35.00 L29.09 34.93 L28.88 34.84 L28.67 34.74 L28.46 34.63 L28.26 34.50 L28.06 34.35 L27.88 34.19 L27.71 34.01 L27.55 33.82 L27.42 33.61 L27.30 33.40 L27.20 33.17 L27.12 32.94 L27.07 32.69 L27.03 32.45 L27.00 32.20 L26.99 31.95 L26.99 31.70 L27.00 31.45 L27.02 31.20 L27.05 30.94 L27.08 30.69 L27.11 30.43 L27.15 30.17 L27.20 29.91 L27.26 29.65 L27.32 29.38 L27.39 29.12 L27.48 28.85 L27.57 28.58 L27.69 28.32 L27.82 28.06 L27.97 27.81 L28.14 27.57 L28.32 27.34 L28.53 27.12 L28.75 26.92 L28.98 26.74 L29.23 26.57 L29.49 26.41 L29.75 26.27 L30.03 26.15 L30.30 26.03 L30.58 25.92 L30.87 25.81 L31.16 25.71 L31.45 25.61 L31.74 25.51 L32.04 25.40 L32.35 25.30 L32.67 25.19 L33.00 25.09 L33.34 24.99 L33.69 24.90 L34.05 24.82 L34.42 24.76 L34.81 24.71 L35.19 24.69 L35.59 24.69 L35.98 24.73 L36.37 24.79 L36.75 24.89 L37.13 25.02 L37.49 25.18 L37.84 25.37 L38.17 25.59 L38.48 25.83 L38.77 26.09 L39.05 26.37 L39.31 26.67 L39.56 26.98 L39.79 27.30 L40.01 27.63 L40.23 27.96 L40.43 28.30 L40.63 28.65 L40.82 29.01 L41.01 29.37 L41.19 29.75 L41.35 30.13 L41.50 30.52 L41.64 30.93 L41.75 31.34 L41.84 31.77 L41.90 32.20 L41.93 32.63 L41.92 33.07 L41.88 33.51 L41.80 33.94 L41.68 34.37 L41.53 34.79 L41.36 35.20 L41.15 35.59 L40.92 35.97 L40.67 36.34 L40.41 36.70 L40.13 37.05 L39.85 37.39 L39.57 37.72 L39.28 38.06 L38.99 38.40 L38.70 38.74 L38.41 39.08 L38.11 39.43 L37.81 39.79 L37.49 40.15 L37.16 40.52 L36.81 40.88 L36.44 41.24 L36.05 41.58 L35.63 41.91 L35.19 42.22 L34.72 42.49 L34.23 42.74 L33.72 42.95 L33.20 43.12 L32.66 43.25 L32.11 43.34 L31.55 43.40 L30.99 43.41 L30.43 43.39 L29.87 43.33 L29.32 43.25 L28.76 43.14 L28.21 43.02 L27.67 42.88 L27.12 42.72 L26.58 42.55 L26.03 42.37 L25.49 42.17 L24.94 41.96 L24.40 41.73 L23.86 41.48 L23.32 41.20 L22.80 40.90 L22.29 40.57 L21.79 40.21 L21.33 39.81 L20.90 39.38 L20.50 38.92 L20.14 38.42 L19.83 37.90 L19.57 37.36 L19.35 36.80 L19.18 36.23 L19.05 35.64 L18.97 35.06 L18.92 34.47 L18.90 33.89 L18.90 33.31 L18.92 32.73 L18.95 32.16 L18.99 31.60 L19.03 31.04 L19.07 30.48 L19.11 29.91 L19.16 29.34 L19.20 28.77 L19.25 28.19 L19.31 27.59 L19.38 26.99 L19.48 26.38 L19.60 25.77 L19.76 25.16 L19.96 24.55 L20.19 23.95 L20.48 23.37 L20.80 22.80 L21.17 22.26 L21.59 21.75 L22.04 21.27 L22.53 20.81 L23.04 20.39 L23.59 20.01 L24.16 19.65 L24.74 19.31 L25.34 19.00 L25.95 18.70 L26.58 18.42 L27.21 18.15 L27.85 17.90 L28.51 17.65 L29.18 17.41 L29.87 17.18 L30.57 16.97 L31.29 16.78 L32.02 16.61 L32.77 16.48 L33.54 16.39 L34.31 16.35 L35.09 16.36 L35.87 16.43 L36.64 16.56 L37.40 16.76 L38.14 17.02 L38.85 17.34 L39.53 17.72 L40.17 18.16 L40.77 18.64 L41.34 19.16 L41.87 19.71 L42.37 20.28 L42.83 20.88 L43.26 21.48 L43.68 22.09 L44.07 22.70 L44.46 23.31 L44.84 23.92 L45.21 24.53 L45.59 25.14 L45.96 25.76 L46.33 26.39 L46.70 27.03 L47.05 27.68 L47.39 28.35 L47.70 29.04 L47.98 29.75 L48.22 30.48 L48.42 31.22 L48.56 31.98 L48.65 32.74 L48.69 33.52 L48.67 34.29 L48.59 35.06 L48.46 35.83 L48.28 36.58 L48.05 37.33 L47.79 38.06 L47.50 38.78 L47.19 39.49 L46.85 40.20 L46.50 40.90 L46.14 41.60 L45.76 42.30 L45.38 43.00 L44.97 43.72 L44.55 44.43 L44.10 45.15 L43.62 45.86 L43.10 46.57 L42.55 47.27 L41.95 47.94 L41.30 48.58 L40.61 49.17 L39.87 49.72 L39.08 50.20 L38.26 50.62 L37.39 50.96 L36.50 51.22 L35.59 51.41 L34.67 51.51 L33.74 51.54 L32.81 51.51 L31.89 51.40 L30.98 51.25 L30.09 51.05 L29.22 50.81 L28.36 50.54 L27.51 50.25 L26.68 49.95 L25.86 49.64 L25.05 49.32 L24.24 48.98 L23.43 48.64 L22.63 48.29 L21.83 47.91 L21.03 47.51 L20.25 47.08 L19.47 46.62 L18.72 46.12 L18.00 45.57 L17.31 44.98 L16.66 44.34 L16.06 43.65 L15.51 42.93 L15.01 42.16 L14.57 41.37 L14.19 40.55 L13.86 39.70 L13.58 38.85 L13.33 37.98 L13.13 37.11 L12.95 36.23 L12.79 35.35 L12.64 34.47 L12.50 33.59 L12.36 32.70 L12.22 31.79 L12.09 30.88 L11.96 29.94 L11.84 28.99 L11.75 28.02 L11.68 27.02 L11.65 26.01 L11.67 24.98 L11.76 23.94 L11.91 22.90 L12.14 21.87 L12.45 20.86 L12.85 19.87 L13.34 18.91 L13.91 18.01 L14.56 17.15 L15.29 16.35 L16.08 15.61 L16.92 14.93 L17.82 14.31 L18.74 13.75 L19.70 13.24 L20.67 12.77 L21.66 12.35 L22.66 11.96 L23.66 11.60 L24.66 11.26 L25.67 10.94 L26.68 10.64 L27.70 10.35 L28.73 10.09 L29.78 9.86 L30.83 9.65 L31.90 9.49 L32.98 9.38 L34.07 9.32 L35.16 9.33 L36.25 9.41 L37.34 9.56 L38.41 9.80 L39.45 10.11 L40.47 10.49 L41.46 10.95 L42.41 11.47 L43.31 12.05 L44.18 12.67 L45.01 13.33 L45.81 14.02 L46.58 14.72 L47.33 15.44 L48.07 16.16 L48.80 16.88 L49.53 17.60 L50.26 18.32 L51.01 19.05 L51.76 19.80 L52.52 20.56 L53.29 21.34 L54.05 22.16 L54.79 23.01 L55.52 23.91 L56.20 24.85 L56.83 25.84 L57.40 26.87 L57.89 27.95 L58.30 29.07 L58.61 30.22 L58.82 31.39 L58.93 32.58 L58.94 33.77 L58.84 34.96 L58.66 36.14 L58.39 37.31 L58.05 38.46 L57.65 39.58 L57.19 40.68 L56.69 41.77 L56.15 42.83 L55.58 43.88 L54.98 44.91 L54.37 45.93 L53.72 46.94 L53.05 47.95 L52.35 48.93 L51.61 49.91 L50.82 50.86 L49.99 51.78 L49.10 52.66 L48.16 53.50 L47.16 54.27 L46.11 54.97 L45.00 55.60 L43.84 56.13 L42.64 56.58 L41.41 56.93" fill="none" stroke-width="3.4" stroke-linecap="round" stroke-linejoin="round"/></svg>
